<?xml version="1.0" encoding="UTF-8"?>
<svg width="25px" height="24px" viewBox="0 0 25 24" version="1.1" xmlns="http://www.w3.org/2000/svg" xmlns:xlink="http://www.w3.org/1999/xlink">
    <title>矩形备份</title>
    <g id="2022.8.31（上午）" stroke="none" stroke-width="1" fill="none" fill-rule="evenodd">
        <g id="底部导航" transform="translate(-222.000000, -6.000000)" fill="#444A58">
            <g id="购物车" transform="translate(187.500000, 0.000000)">
                <g id="购物车_未选中" transform="translate(35.000000, 6.000000)">
                    <g id="project" transform="translate(6.000000, 4.500000)">
                        <path d="M11.1434625,1.3783456 L10.571377,1.3783456 C10.0981535,1.37893679 9.7148405,1.76634328 9.71484086,2.24402884 C9.71484086,2.24402884 9.71484086,2.2590283 9.71484086,2.26652804 C9.70271964,2.88055656 9.20667906,3.37223059 8.59826584,3.37327406 L3.40597969,3.37327406 C3.10891497,3.37384307 2.82382416,3.2551206 2.61356829,3.04328434 C2.40331242,2.83144808 2.2851586,2.54389493 2.28515914,2.24402884 L2.28515914,2.24402884 C2.2851595,1.76634328 1.90184647,1.37893679 1.42862297,1.3783456 L0.856537479,1.3783456 C0.629185948,1.3783456 0.411161619,1.46958525 0.250499384,1.63196322 C0.0898371481,1.7943412 -0.000280410279,2.01453395 6.55488066e-07,2.24402884 L6.55488066e-07,14.1364595 C0.000586986507,14.613553 0.383899803,15 0.856537479,15 L11.1434625,15 C11.3708141,15 11.5888384,14.9087603 11.7495006,14.7463824 C11.9101629,14.5840044 12.0002804,14.3638117 12.0000007,14.1343168 L12.0000007,2.24402884 C12.0002804,2.01453395 11.9101629,1.7943412 11.7495006,1.63196322 C11.5888384,1.46958525 11.3708141,1.3783456 11.1434625,1.3783456 Z M7.71413371,10.6737266 L4.28586629,10.6737266 C3.97247264,10.6848608 3.67804691,10.5224431 3.51807909,10.2501826 C3.35811128,9.97792212 3.35811128,9.63923592 3.51807909,9.36697541 C3.67804691,9.09471491 3.97247264,8.9322972 4.28586629,8.94343147 L7.71413371,8.94343147 C8.02752736,8.9322972 8.32195309,9.09471491 8.48192091,9.36697541 C8.64188872,9.63923592 8.64188872,9.97792212 8.48192091,10.2501826 C8.32195309,10.5224431 8.02752736,10.6848608 7.71413371,10.6737266 L7.71413371,10.6737266 Z M7.71413371,7.21206498 L4.28586629,7.21206498 C3.97247264,7.22319925 3.67804691,7.06078154 3.51807909,6.78852104 C3.35811128,6.51626053 3.35811128,6.17757433 3.51807909,5.90531383 C3.67804691,5.63305332 3.97247264,5.47063562 4.28586629,5.48176988 L7.71413371,5.48176988 C8.02752736,5.47063562 8.32195309,5.63305332 8.48192091,5.90531383 C8.64188872,6.17757433 8.64188872,6.51626053 8.48192091,6.78852104 C8.32195309,7.06078154 8.02752736,7.22319925 7.71413371,7.21206498 Z" id="Shape"></path>
                        <path d="M4.28586629,1.73083296 L7.71413371,1.73083296 C8.02752736,1.74196723 8.32195309,1.57954952 8.48192091,1.30728902 C8.64188872,1.03502851 8.64188872,0.696342311 8.48192091,0.424081807 C8.32195309,0.151821302 8.02752736,-0.010596404 7.71413371,0.000537862728 L4.28586629,0.000537862728 C3.97247264,-0.010596404 3.67804691,0.151821302 3.51807909,0.424081807 C3.35811128,0.696342311 3.35811128,1.03502851 3.51807909,1.30728902 C3.67804691,1.57954952 3.97247264,1.74196723 4.28586629,1.73083296 Z" id="Path"></path>
                    </g>
                </g>
            </g>
        </g>
    </g>
</svg>