<?xml version="1.0" encoding="UTF-8"?>
<svg width="24px" height="24px" viewBox="0 0 24 24" version="1.1" xmlns="http://www.w3.org/2000/svg" xmlns:xlink="http://www.w3.org/1999/xlink">
    <title>矩形</title>
    <g id="2022.8.31（上午）" stroke="none" stroke-width="1" fill="none" fill-rule="evenodd">
        <g id="底部导航" transform="translate(-35.000000, -6.000000)">
            <g id="首页_未选中" transform="translate(35.000000, 6.000000)">
                <rect id="矩形" fill="#C2C2C2" opacity="0" x="0" y="0" width="24" height="24"></rect>
                <g id="home" transform="translate(4.000000, 5.000000)" fill="#444A58" fill-rule="nonzero">
                    <path d="M9.6,11.1118966 L9.6,13.9290394 C9.6,14.3708672 9.9581722,14.7290394 10.4,14.7290394 L15.2,14.7290394 C15.6418278,14.7290394 16,14.3708672 16,13.9290394 L16,6.85703943 C16,6.51755295 15.8651838,6.19196201 15.6251429,5.95189657 L8.904,0.374753713 C8.66433997,0.134817805 8.33912559,0 8,0 C7.66087441,0 7.33566003,0.134817805 7.096,0.374753713 L0.374857143,5.95189657 C0.134816197,6.19196201 0,6.51755295 0,6.85703943 L0,13.9290394 C0,14.3708672 0.3581722,14.7290394 0.8,14.7290394 L5.6,14.7290394 C5.81217319,14.7290394 6.01565632,14.644754 6.16568542,14.4947249 C6.31571453,14.3446957 6.4,14.1412126 6.4,13.9290394 L6.4,11.1118966 C6.4,10.228241 7.1163444,9.51189657 8,9.51189657 C8.8836556,9.51189657 9.6,10.228241 9.6,11.1118966 Z" id="Home"></path>
                </g>
            </g>
        </g>
    </g>
</svg>