<?xml version="1.0" encoding="UTF-8"?>
<svg width="25px" height="24px" viewBox="0 0 25 24" version="1.1" xmlns="http://www.w3.org/2000/svg" xmlns:xlink="http://www.w3.org/1999/xlink">
    <title>矩形备份</title>
    <g id="2022.8.31（上午）" stroke="none" stroke-width="1" fill="none" fill-rule="evenodd">
        <g id="底部导航" transform="translate(-128.000000, -6.000000)">
            <g id="菜单" transform="translate(93.750000, 0.000000)">
                <g id="icon/学做菜/nor备份-5" transform="translate(35.000000, 6.000000)">
                    <rect id="矩形备份" fill="#EDEDED" opacity="0" x="0" y="0" width="24" height="24"></rect>
                    <path d="M15.9993023,4.5 L17.124,5.952 L18.7201585,5.95268814 C18.8747107,5.95268814 19,6.07797743 19,6.2325296 L19,8.09067693 C19,8.2452291 18.8747107,8.37051839 18.7201585,8.37051839 L16.9570374,8.37051839 L16.1241096,18.4726148 C16.0796598,19.0117213 15.6581537,19.4354877 15.1317462,19.4932752 L15.0085293,19.5 L8.99216673,19.5 C8.45135916,19.5 7.99445638,19.1149182 7.89347696,18.5951872 L7.87661599,18.4729731 L7.04039217,8.37051839 L5.27984146,8.37051839 C5.12528929,8.37051839 5,8.2452291 5,8.09067693 L5,6.2325296 C5,6.07797743 5.12528929,5.95268814 5.27984146,5.95268814 L6.875,5.952 L7.99915544,4.5 L15.9993023,4.5 Z M11.9767362,11.7584657 C11.0240504,11.7822966 10.2647156,12.5270074 10.2647156,13.4375145 C10.2647156,14.3480216 11.0240504,15.0927324 11.9767362,15.1165633 C12.9477691,15.1162456 13.7347703,14.3640876 13.7347703,13.4363637 C13.7334415,12.5095387 12.9468291,11.7587823 11.9767362,11.7584657 Z" id="形状结合" fill="#444A58"></path>
                </g>
            </g>
        </g>
    </g>
</svg>