<?xml version="1.0" encoding="UTF-8"?>
<svg width="25px" height="24px" viewBox="0 0 25 24" version="1.1" xmlns="http://www.w3.org/2000/svg" xmlns:xlink="http://www.w3.org/1999/xlink">
    <title>矩形备份</title>
    <g id="2022.8.31（上午）" stroke="none" stroke-width="1" fill="none" fill-rule="evenodd">
        <g id="底部导航" transform="translate(-316.000000, -6.000000)" fill="#444A58" fill-rule="nonzero">
            <g id="我的" transform="translate(281.250000, 0.000000)">
                <g id="我的_未选中" transform="translate(35.000000, 6.000000)">
                    <g id="icon/我的" transform="translate(0.500000, 0.000000)">
                        <g id="user_big" transform="translate(4.000000, 4.000000)">
                            <path d="M3.9987895,4 C3.9987895,1.790861 5.79019246,0 8,0 C10.2098075,0 12.0012105,1.790861 12.0012105,4 C12.0012105,6.209139 10.2098075,8 8,8 C5.79019246,8 3.9987895,6.209139 3.9987895,4 L3.9987895,4 Z M15.9143944,14.84 L14.4019368,11.808 C13.7235614,10.4546363 12.3390855,9.6 10.8248546,9.6 L5.17514539,9.6 C3.66091451,9.6 2.27643864,10.4546363 1.59806321,11.808 L0.0856056396,14.84 C-0.0392075165,15.0876146 -0.0268645942,15.3821823 0.118225967,15.6184943 C0.263316528,15.8548063 0.520462631,15.9991609 0.797821108,16 L15.2021789,16 C15.4795374,15.9991609 15.7366835,15.8548063 15.881774,15.6184943 C16.0268646,15.3821823 16.0392075,15.0876146 15.9143944,14.84 Z" id="Icon-color"></path>
                        </g>
                    </g>
                </g>
            </g>
        </g>
    </g>
</svg>